<?xml version="1.0" encoding="UTF-8" standalone="no"?>
<!-- Created with Inkscape (http://www.inkscape.org/) -->

<svg
   xmlns:dc="http://purl.org/dc/elements/1.1/"
   xmlns:cc="http://creativecommons.org/ns#"
   xmlns:rdf="http://www.w3.org/1999/02/22-rdf-syntax-ns#"
   xmlns:svg="http://www.w3.org/2000/svg"
   xmlns="http://www.w3.org/2000/svg"
   xmlns:sodipodi="http://sodipodi.sourceforge.net/DTD/sodipodi-0.dtd"
   xmlns:inkscape="http://www.inkscape.org/namespaces/inkscape"
   width="39.216618"
   height="35.149384"
   id="svg2"
   version="1.1"
   inkscape:version="0.48.4 r9939"
   sodipodi:docname="SongProof Logo.svg">
  <defs
     id="defs4" />
  <sodipodi:namedview
     id="base"
     pagecolor="#ffffff"
     bordercolor="#666666"
     borderopacity="1.0"
     inkscape:pageopacity="0.0"
     inkscape:pageshadow="2"
     inkscape:zoom="11.313709"
     inkscape:cx="18.057695"
     inkscape:cy="30.841211"
     inkscape:document-units="px"
     inkscape:current-layer="text7108"
     showgrid="false"
     inkscape:object-paths="false"
     inkscape:snap-nodes="true"
     inkscape:object-nodes="true"
     inkscape:snap-bbox="false"
     inkscape:snap-bbox-midpoints="true"
     fit-margin-left="0"
     fit-margin-top="0"
     fit-margin-right="0"
     fit-margin-bottom="0"
     inkscape:window-width="1280"
     inkscape:window-height="971"
     inkscape:window-x="-8"
     inkscape:window-y="-8"
     inkscape:window-maximized="1" />
  <metadata
     id="metadata7">
    <rdf:RDF>
      <cc:Work
         rdf:about="">
        <dc:format>image/svg+xml</dc:format>
        <dc:type
           rdf:resource="http://purl.org/dc/dcmitype/StillImage" />
        <dc:title></dc:title>
      </cc:Work>
    </rdf:RDF>
  </metadata>
  <g
     inkscape:label="Layer 1"
     inkscape:groupmode="layer"
     id="layer1"
     transform="translate(-4.8834919e-8,-1017.2128)">
    <g
       id="g7146"
       transform="matrix(1.2878361,0,0,1.2878361,-5.3337748,-294.51226)"
       style="fill:#000000;fill-opacity:1">
      <g
         style="font-size:4.83571577px;font-style:normal;font-weight:normal;line-height:125%;letter-spacing:0px;word-spacing:0px;fill:#000000;stroke:none;font-family:Sans"
         id="text7108">
        <g
           id="g7181"
           style="fill:#ffffff;fill-opacity:1">
          <g
             id="text7118"
             style="fill:#ffffff;fill-opacity:1;font-size:4.78175305999999980px;font-style:normal;font-weight:normal;line-height:125%;letter-spacing:0px;word-spacing:0px;stroke:none;font-family:Sans"
             transform="translate(3.7920135e-8,-2.0729214e-5)">
            <path
               id="path7159"
               style="fill:#ffffff;fill-opacity:1"
               d="m 20.275643,1031.8843 0,-2.4796 0.378244,0 0,0.3759 c 0.09651,-0.1759 0.185619,-0.2919 0.267339,-0.3479 0.08172,-0.056 0.17161,-0.084 0.269674,-0.084 0.141646,0 0.285627,0.045 0.431946,0.1355 l -0.144761,0.3899 c -0.102734,-0.061 -0.205467,-0.091 -0.308199,-0.091 -0.09184,0 -0.174335,0.028 -0.247493,0.083 -0.07316,0.055 -0.125304,0.1319 -0.156434,0.23 -0.0467,0.1494 -0.07005,0.3129 -0.07005,0.4903 l 0,1.2982 z" />
            <path
               id="path7161"
               style="fill:#ffffff;fill-opacity:1"
               d="m 28.608687,1031.8843 0,-2.1527 -0.371239,0 0,-0.3269 0.371239,0 0,-0.2639 c 0,-0.1665 0.01479,-0.2903 0.04436,-0.3712 0.04047,-0.109 0.111683,-0.1973 0.213638,-0.265 0.101954,-0.068 0.244768,-0.1016 0.428443,-0.1016 0.118298,0 0.249049,0.014 0.392254,0.042 l -0.06304,0.3665 c -0.08717,-0.015 -0.169667,-0.023 -0.247493,-0.023 -0.127639,0 -0.21792,0.027 -0.270842,0.082 -0.05292,0.055 -0.07938,0.1564 -0.07938,0.3059 l 0,0.2288 0.483312,0 0,0.3269 -0.483312,0 0,2.1527 z" />
          </g>
          <path
             style="fill:#ffffff;fill-opacity:1;stroke:none"
             d="m 7.4375,1019.7685 c -2.0565403,0.14 -3.3113567,2.3077 -3.2788232,4.2115 -0.1182573,1.9278 0.3681016,3.9937 1.8242943,5.3509 1.5736379,1.868 3.5862799,3.3298 5.8320649,4.2849 1.381518,0.6771 2.791528,1.2844 4.271534,1.7133 2.388171,0.9139 4.650745,2.2899 6.41709,4.1509 1.112958,1.2445 1.825573,3.1827 1.01255,4.7585 -0.999303,1.3715 -1.987875,-0.5652 -2.51182,-1.3857 -0.839726,-1.1699 -2.242646,0.182 -1.778226,1.2492 0.753725,1.8172 3.487025,2.3102 4.931717,1.0096 1.662626,-1.4201 1.700883,-3.8604 1.315165,-5.8433 -0.337608,-1.9157 -1.874114,-3.2401 -3.172082,-4.5539 -1.919394,-1.8176 -4.420212,-2.8076 -6.797062,-3.8647 -2.991891,-0.8638 -5.896857,-2.3121 -8.070881,-4.5795 -1.160952,-1.2744 -1.941072,-3.272 -1.105483,-4.9093 0.999305,-1.3714 1.987876,0.5652 2.511822,1.3857 0.839726,1.1699 2.242646,-0.182 1.778226,-1.2492 -0.437878,-1.2314 -1.962196,-1.8019 -3.180086,-1.7289 z"
             id="path2985"
             inkscape:connector-curvature="0"
             transform="translate(3.7920135e-8,-2.0729214e-5)" />
          <path
             sodipodi:nodetypes="cccccccccccsssss"
             inkscape:connector-curvature="0"
             style="fill:#ffffff;fill-opacity:1;stroke:none"
             d="m 26.84375,1018.5497 c -1.928882,0.018 -3.978723,0.4531 -5.46875,1.75 -0.527459,0.3481 -0.784355,1.1575 -1.125,1.75 -12.90625,23.2815 0,0 -12.90625,23.2815 l 1.1875,0 C 20.75,1024.081 8.52053,1045.3158 20.75,1024.081 c 0.07763,0.09 0.355163,-0.079 0.4375,0 1.69054,1.7076 4.346778,2.0715 6.65625,1.9062 1.993957,-0.2043 4.258154,-0.852 5.25,-2.75 0.720341,-1.5293 -0.560732,-3.1014 -1.90625,-3.7187 -1.334644,-0.6925 -2.849641,-0.9645 -4.34375,-0.9688 z m 0.1875,1.5 c 2.606094,0 4.71875,0.9993 4.71875,2.2188 0,1.2194 -2.112656,2.2187 -4.71875,2.2187 -2.606094,0 -4.71875,-0.9993 -4.71875,-2.2187 0,-1.2195 2.112656,-2.2188 4.71875,-2.2188 z"
             id="rect7089"
             transform="translate(3.7920135e-8,-2.0729214e-5)" />
          <path
             id="path7098"
             d="m 10.75,22 c 0,0.759392 -0.615608,1.375 -1.375,1.375 C 8.6156085,23.375 8,22.759392 8,22 c 0,-0.759392 0.6156085,-1.375 1.375,-1.375 0.759392,0 1.375,0.615608 1.375,1.375 z"
             style="fill:#ffffff;fill-opacity:1;stroke:none"
             transform="translate(-0.93750001,1013.7997)" />
          <path
             id="path7100"
             d="m 10.75,22 c 0,0.759392 -0.615608,1.375 -1.375,1.375 C 8.6156085,23.375 8,22.759392 8,22 c 0,-0.759392 0.6156085,-1.375 1.375,-1.375 0.759392,0 1.375,0.615608 1.375,1.375 z"
             style="fill:#ffffff;fill-opacity:1;stroke:none"
             transform="translate(14.025642,1008.5653)" />
          <path
             id="path7112"
             d="m 10.75,22 c 0,0.759392 -0.615608,1.375 -1.375,1.375 C 8.6156085,23.375 8,22.759392 8,22 c 0,-0.759392 0.6156085,-1.375 1.375,-1.375 0.759392,0 1.375,0.615608 1.375,1.375 z"
             style="fill:#ffffff;fill-opacity:1;stroke:none"
             transform="translate(18.457009,1020.9403)" />
          <path
             id="path7122"
             d="m 10.75,22 c 0,0.759392 -0.615608,1.375 -1.375,1.375 C 8.6156085,23.375 8,22.759392 8,22 c 0,-0.759392 0.6156085,-1.375 1.375,-1.375 0.759392,0 1.375,0.615608 1.375,1.375 z"
             style="fill:#ffffff;fill-opacity:1;stroke:none"
             transform="translate(17.025642,1008.5653)" />
          <path
             id="path7168"
             style="fill:#ffffff;fill-opacity:1"
             d="m 29.854308,1044.1765 0,-2.5076 0.382512,0 0,0.3566 c 0.184172,-0.2755 0.450199,-0.4132 0.798082,-0.4132 0.151115,0 0.290031,0.027 0.41675,0.081 0.126716,0.054 0.221557,0.1256 0.284524,0.2137 0.06296,0.088 0.107038,0.1928 0.132226,0.314 0.01574,0.079 0.02361,0.2165 0.02361,0.4133 l 0,1.5418 -0.425014,0 0,-1.5253 c -2e-6,-0.1732 -0.01653,-0.3026 -0.04959,-0.3884 -0.03306,-0.086 -0.09169,-0.1543 -0.175908,-0.2055 -0.08422,-0.051 -0.182994,-0.077 -0.29633,-0.077 -0.181025,0 -0.337257,0.057 -0.468696,0.1724 -0.13144,0.1149 -0.19716,0.3329 -0.197159,0.654 l 0,1.3695 z" />
          <path
             id="path7170"
             style="fill:#ffffff;fill-opacity:1"
             d="m 32.468144,1044.3843 0.413208,0.061 c 0.01732,0.1275 0.06533,0.2204 0.144033,0.2786 0.105466,0.079 0.249498,0.1181 0.432098,0.1181 0.196764,0 0.348667,-0.039 0.455709,-0.1181 0.107039,-0.079 0.179449,-0.1889 0.21723,-0.3306 0.02203,-0.087 0.03227,-0.2683 0.03069,-0.5454 -0.185749,0.2188 -0.417145,0.3282 -0.69419,0.3282 -0.344734,0 -0.611548,-0.1243 -0.800443,-0.3731 -0.188895,-0.2487 -0.283343,-0.547 -0.283342,-0.8948 -10e-7,-0.2393 0.04329,-0.4601 0.129865,-0.6624 0.08658,-0.2022 0.212113,-0.3585 0.37661,-0.4687 0.164495,-0.1101 0.357719,-0.1652 0.579672,-0.1652 0.295934,0 0.539923,0.1196 0.731968,0.3589 l 0,-0.3023 0.391958,0 0,2.1676 c -3e-6,0.3904 -0.03975,0.667 -0.11924,0.83 -0.0795,0.1629 -0.205426,0.2916 -0.377791,0.386 -0.172368,0.094 -0.384481,0.1417 -0.63634,0.1417 -0.299085,0 -0.540713,-0.067 -0.724885,-0.2019 -0.184173,-0.1346 -0.273111,-0.3373 -0.266815,-0.608 z m 0.351818,-1.5064 c -10e-7,0.329 0.06533,0.569 0.195978,0.7201 0.130652,0.1511 0.294361,0.2267 0.491128,0.2267 0.19519,0 0.358899,-0.075 0.491127,-0.2255 0.132225,-0.1503 0.198338,-0.3861 0.19834,-0.7072 -2e-6,-0.3069 -0.06808,-0.5383 -0.204243,-0.6942 -0.136163,-0.1558 -0.300266,-0.2337 -0.492308,-0.2337 -0.188896,0 -0.349457,0.077 -0.481683,0.2302 -0.132227,0.1535 -0.19834,0.3813 -0.198339,0.6836 z" />
        </g>
      </g>
    </g>
  </g>
</svg>
